HIERARCHY
ROOT Hips
{
	OFFSET -0.001795 -0.223333 0.028219
	CHANNELS 6 Xposition Yposition Zposition Zrotation Yrotation Xrotation
	JOINT LeftUpLeg
	{
		OFFSET 0.069520 -0.091406 -0.006815
		CHANNELS 3 Zrotation Yrotation Xrotation
		JOINT LeftLeg
		{
			OFFSET 0.034277 -0.375199 -0.004496
			CHANNELS 3 Zrotation Yrotation Xrotation
			JOINT LeftFoot
			{
				OFFSET -0.013596 -0.397961 -0.043693
				CHANNELS 3 Zrotation Yrotation Xrotation
				JOINT LeftToe
				{
					OFFSET 0.026358 -0.055791 0.119288
					CHANNELS 3 Zrotation Yrotation Xrotation
					End Site
					{
						OFFSET 0.000000 0.000000 0.000000
					}
				}
			}
		}
	}
	JOINT RightUpLeg
	{
		OFFSET -0.067670 -0.090522 -0.004320
		CHANNELS 3 Zrotation Yrotation Xrotation
		JOINT RightLeg
		{
			OFFSET -0.038290 -0.382569 -0.008850
			CHANNELS 3 Zrotation Yrotation Xrotation
			JOINT RightFoot
			{
				OFFSET 0.015774 -0.398415 -0.042312
				CHANNELS 3 Zrotation Yrotation Xrotation
				JOINT RightToe
				{
					OFFSET -0.025372 -0.048144 0.123348
					CHANNELS 3 Zrotation Yrotation Xrotation
					End Site
					{
						OFFSET 0.000000 0.000000 0.000000
					}
				}
			}
		}
	}
	JOINT Spine
	{
		OFFSET -0.002533 0.108963 -0.026696
		CHANNELS 3 Zrotation Yrotation Xrotation
		JOINT Spine1
		{
			OFFSET 0.005487 0.135180 0.001092
			CHANNELS 3 Zrotation Yrotation Xrotation
			JOINT Spine2
			{
				OFFSET 0.001457 0.052922 0.025425
				CHANNELS 3 Zrotation Yrotation Xrotation
				JOINT Neck
				{
					OFFSET -0.002778 0.213870 -0.042857
					CHANNELS 3 Zrotation Yrotation Xrotation
					JOINT Head
					{
						OFFSET 0.005152 0.064970 0.051349
						CHANNELS 3 Zrotation Yrotation Xrotation
						End Site
						{
							OFFSET 0.000000 0.000000 0.000000
						}
					}
				}
				JOINT LeftShoulder
				{
					OFFSET 0.078845 0.121749 -0.034090
					CHANNELS 3 Zrotation Yrotation Xrotation
					JOINT LeftArm
					{
						OFFSET 0.090977 0.030469 -0.008868
						CHANNELS 3 Zrotation Yrotation Xrotation
						JOINT LeftForeArm
						{
							OFFSET 0.259612 -0.012772 -0.027456
							CHANNELS 3 Zrotation Yrotation Xrotation
							JOINT LeftHand
							{
								OFFSET 0.249234 0.008986 -0.001171
								CHANNELS 3 Zrotation Yrotation Xrotation
								End Site
								{
									OFFSET 0.000000 0.000000 0.000000
								}
							}
						}
					}
				}
				JOINT RightShoulder
				{
					OFFSET -0.081759 0.118833 -0.038615
					CHANNELS 3 Zrotation Yrotation Xrotation
					JOINT RightArm
					{
						OFFSET -0.096012 0.032551 -0.009143
						CHANNELS 3 Zrotation Yrotation Xrotation
						JOINT RightForeArm
						{
							OFFSET -0.253742 -0.013329 -0.021401
							CHANNELS 3 Zrotation Yrotation Xrotation
							JOINT RightHand
							{
								OFFSET -0.255298 0.007772 -0.005559
								CHANNELS 3 Zrotation Yrotation Xrotation
								End Site
								{
									OFFSET 0.000000 0.000000 0.000000
								}
							}
						}
					}
				}
			}
		}
	}
}
MOTION
Frames: 15
Frame Time: 0.050000
0.226509 0.948479 -1.034635 -3.158752 -9.958692 -1.990735 2.057960 0.400705 4.414348 -1.388629 0.169440 0.778911 2.531233 6.986244 7.607122 0.000000 0.000000 0.000000 -2.711249 1.132366 -12.506135 -3.591377 1.375390 11.912474 1.684016 -1.210610 8.174325 0.000000 0.000000 0.000000 -3.507792 -0.019064 6.216030 1.641676 -0.813004 4.464483 2.332867 -12.797465 1.056455 -5.659365 2.544894 -22.108302 0.000000 0.000000 0.000000 -23.124714 -10.526921 9.671601 -36.656187 -23.304306 0.927305 1.053874 -40.866466 2.597580 0.000000 0.000000 0.000000 19.499622 8.959336 -2.313904 43.395038 3.105950 -1.196933 -18.262187 19.865726 -3.467883 0.000000 0.000000 0.000000
0.230664 0.949851 -1.039086 -3.563941 -10.028598 -2.869519 2.213627 0.443672 4.878978 -1.252167 0.143786 1.212151 2.503776 6.985998 7.843357 0.000000 0.000000 0.000000 -2.611527 1.039128 -11.500889 -3.333563 1.265580 11.313065 2.882789 0.553656 9.423547 0.000000 0.000000 0.000000 -3.873291 -0.008836 5.391870 1.075895 -0.520981 4.274923 2.004942 -11.279517 2.033017 -4.782811 2.238456 -21.266838 0.000000 0.000000 0.000000 -23.722046 -9.021223 8.389560 -36.372831 -19.230000 -0.329192 0.841707 -35.440597 2.094590 0.000000 0.000000 0.000000 19.634762 9.106385 -1.797488 43.680090 3.331760 -1.349566 -15.540448 18.279356 -2.542718 0.000000 0.000000 0.000000
0.232978 0.951283 -1.041665 -3.778710 -9.489728 -3.167981 2.331866 0.484025 5.429613 -1.129328 0.139024 0.406710 2.135635 6.451027 8.289427 0.000000 0.000000 0.000000 -2.318758 0.995176 -10.907734 -3.622010 1.348106 11.616811 3.447888 1.849744 9.338468 0.000000 0.000000 0.000000 -3.944610 -0.011659 4.432893 0.341570 -0.147033 4.052517 1.251553 -9.766260 2.459533 -4.016014 2.044231 -19.657388 0.000000 0.000000 0.000000 -23.810805 -7.904571 7.113338 -36.081275 -16.086149 -1.142466 2.020056 -28.725155 1.201852 0.000000 0.000000 0.000000 19.844182 8.789091 -1.454117 44.027210 2.858969 -1.706635 -12.443429 16.320224 -1.644871 0.000000 0.000000 0.000000
0.234186 0.951888 -1.042745 -4.122695 -7.860086 -3.915608 2.802883 0.508796 6.127904 -1.063638 0.130375 0.197688 1.321781 5.098762 8.155700 0.000000 0.000000 0.000000 -2.056201 0.868319 -9.545147 -3.615508 1.335846 11.680486 3.732015 2.433491 9.697421 0.000000 0.000000 0.000000 -4.334741 -0.010965 4.031113 0.265233 -0.138147 3.534465 0.379263 -8.669832 2.972677 -2.958538 1.661086 -18.412475 0.000000 0.000000 0.000000 -23.767927 -7.118799 5.964626 -35.656367 -14.028502 -1.592992 3.587168 -22.043245 0.499198 0.000000 0.000000 0.000000 20.294140 8.650408 -0.990591 44.357366 2.946965 -1.908990 -11.153020 13.589829 -1.080578 0.000000 0.000000 0.000000
0.234905 0.952042 -1.042680 -4.117195 -6.756691 -4.338488 2.747963 0.522818 6.451223 -0.842586 0.100329 0.174297 0.808546 4.240203 8.050571 0.000000 0.000000 0.000000 -1.866285 0.742150 -8.144524 -4.099174 1.346824 10.881268 4.273310 3.705906 9.689404 0.000000 0.000000 0.000000 -4.535755 -0.014568 3.228331 -0.403206 0.193176 2.795633 -0.126258 -7.457829 3.967979 -2.109433 1.339419 -17.707003 0.000000 0.000000 0.000000 -23.179007 -6.613595 5.015850 -35.554115 -12.597522 -1.850070 3.984867 -16.943740 0.261959 0.000000 0.000000 0.000000 20.577584 8.231973 -0.679037 43.689789 3.259913 -1.987457 -9.415440 12.008663 -0.682668 0.000000 0.000000 0.000000
0.235281 0.952266 -1.042011 -4.111506 -6.092538 -5.021015 2.813750 0.526818 6.612889 -0.872100 0.080763 1.123335 0.511203 3.718337 7.881689 0.000000 0.000000 0.000000 -1.932214 0.615609 -6.819388 -3.939574 1.235070 10.070626 4.224074 3.498652 9.995069 0.000000 0.000000 0.000000 -4.816281 -0.020616 2.843818 -0.843429 0.416823 3.118419 -0.620841 -6.002403 3.617742 -0.815754 0.779499 -17.371143 0.000000 0.000000 0.000000 -22.390411 -6.008577 3.937427 -35.921695 -11.427637 -1.922414 6.100123 -12.992376 -0.039689 0.000000 0.000000 0.000000 20.349652 8.277254 -0.040143 43.869415 3.805593 -1.989104 -8.443399 10.212709 -0.426234 0.000000 0.000000 0.000000
0.235250 0.952525 -1.041328 -4.061343 -4.989798 -5.508009 2.815708 0.532645 6.882280 -0.758160 0.056705 1.387791 -0.011745 2.850785 7.823301 0.000000 0.000000 0.000000 -1.894095 0.491311 -5.438604 -3.791858 1.124529 9.207205 4.118960 2.701465 11.252381 0.000000 0.000000 0.000000 -4.731769 -0.034046 2.653877 -1.356467 0.670087 2.645727 -0.964577 -5.251742 4.035150 -0.422440 0.671292 -16.998081 0.000000 0.000000 0.000000 -22.556838 -5.362165 3.143505 -35.444198 -9.844538 -2.235010 7.332836 -11.022914 -0.145329 0.000000 0.000000 0.000000 20.324416 8.226757 0.371438 43.397681 4.391183 -1.942029 -7.943817 9.405065 -0.313241 0.000000 0.000000 0.000000
0.234591 0.953084 -1.040692 -4.155919 -3.887134 -6.255242 2.993504 0.564177 7.645647 -0.574073 0.032268 1.301256 -0.581442 1.939391 7.876145 0.000000 0.000000 0.000000 -1.810701 0.387358 -4.269352 -3.484379 1.015825 8.638793 3.804720 0.637835 14.381162 0.000000 0.000000 0.000000 -4.890485 -0.046139 2.911052 -1.415890 0.690729 1.808581 -1.839375 -4.071466 4.528394 0.475777 0.350544 -17.412711 0.000000 0.000000 0.000000 -22.322591 -4.822204 2.234351 -35.687220 -9.089220 -2.287062 8.970935 -9.340494 -0.245471 0.000000 0.000000 0.000000 20.610572 8.177945 0.917944 43.249808 5.043900 -1.947216 -7.288028 8.886643 -0.208785 0.000000 0.000000 0.000000
0.232855 0.952892 -1.040004 -4.022795 -3.064434 -6.661437 2.839028 0.581833 7.943899 -0.207053 -0.020442 1.429322 -0.936406 1.328958 7.764600 0.000000 0.000000 0.000000 -1.810713 0.327070 -3.608490 -3.418238 0.998864 8.615203 3.241900 -1.606151 17.486215 0.000000 0.000000 0.000000 -5.070951 -0.052289 2.992656 -1.618008 0.790521 1.548998 -2.190351 -3.201696 4.448628 0.946613 0.198548 -17.059914 0.000000 0.000000 0.000000 -22.238248 -4.378839 1.551388 -35.444255 -7.703957 -2.507418 9.592663 -9.293589 -0.308969 0.000000 0.000000 0.000000 21.105523 7.969152 1.177556 42.689058 6.261314 -1.633796 -6.745334 8.433701 -0.139302 0.000000 0.000000 0.000000
0.229959 0.952933 -1.039084 -3.979328 -2.155207 -7.156699 2.886961 0.591859 8.349611 0.137630 -0.069980 1.552288 -1.355027 0.633174 7.715381 0.000000 0.000000 0.000000 -1.744593 0.276837 -3.056818 -3.131131 0.927415 8.417857 2.344570 -4.460452 21.737012 0.000000 0.000000 0.000000 -5.263336 -0.060663 3.111801 -1.720468 0.841515 1.275925 -2.608459 -2.207498 4.327025 1.548756 -0.014744 -16.759405 0.000000 0.000000 0.000000 -21.762613 -4.003225 0.864871 -35.822622 -7.109672 -2.521442 9.847607 -9.173696 -0.349560 0.000000 0.000000 0.000000 21.543411 8.053358 1.677742 42.375001 7.509393 -1.351171 -6.378192 7.906603 -0.083386 0.000000 0.000000 0.000000
0.226315 0.952371 -1.037837 -3.899564 -1.098713 -7.541966 3.033311 0.593933 8.835545 0.347095 -0.088562 1.318077 -1.830878 -0.207052 7.547920 0.000000 0.000000 0.000000 -1.764735 0.193418 -2.138191 -2.837455 0.843991 8.053000 1.116867 -7.003058 24.799818 0.000000 0.000000 0.000000 -5.404184 -0.069277 3.179705 -1.793055 0.878703 0.905393 -2.939359 -1.309396 4.558242 1.848981 -0.063757 -16.465661 0.000000 0.000000 0.000000 -21.485153 -3.776377 0.317254 -36.563403 -6.471484 -2.620860 9.891305 -9.407336 -0.392112 0.000000 0.000000 0.000000 21.522812 7.863610 2.049596 42.498300 9.185931 -0.973855 -5.404793 7.369275 -0.009807 0.000000 0.000000 0.000000
0.222640 0.951829 -1.036435 -3.989001 -0.502360 -8.060577 3.387271 0.603904 9.597912 0.471157 -0.091324 0.989460 -2.113666 -0.737055 7.386119 0.000000 0.000000 0.000000 -1.717048 0.107136 -1.173789 -2.408048 0.739983 7.675844 0.783380 -7.302228 24.538674 0.000000 0.000000 0.000000 -5.446661 -0.080644 3.183009 -1.847181 0.906079 1.049391 -3.074885 -0.379244 4.147323 2.237336 -0.147669 -16.557087 0.000000 0.000000 0.000000 -21.245769 -3.621247 -0.142954 -37.081287 -6.306287 -2.557139 10.234196 -9.196425 -0.436324 0.000000 0.000000 0.000000 21.734146 8.099104 2.566258 41.819973 10.303111 -0.697092 -4.691443 6.417969 0.039441 0.000000 0.000000 0.000000
0.219477 0.951120 -1.035101 -3.914254 0.306047 -8.115598 3.483467 0.576364 9.604688 0.655928 -0.114183 1.015314 -2.426903 -1.348549 7.156657 0.000000 0.000000 0.000000 -1.748521 0.056034 -0.619616 -2.224568 0.682502 7.325496 0.378257 -7.570529 23.837621 0.000000 0.000000 0.000000 -5.335437 -0.086032 3.126527 -1.917589 0.943727 0.714337 -3.264030 0.183525 4.375529 2.593164 -0.265328 -16.488920 0.000000 0.000000 0.000000 -21.130232 -3.818748 -0.304793 -37.381483 -6.318727 -2.501774 10.448261 -9.400262 -0.485910 0.000000 0.000000 0.000000 21.485153 8.284581 2.997031 40.787904 11.326361 -0.487449 -3.893286 6.124806 0.071996 0.000000 0.000000 0.000000
0.216788 0.950374 -1.033888 -3.703698 0.515527 -8.132468 3.306729 0.594221 9.741557 0.908337 -0.139203 0.895406 -2.469560 -1.488034 6.998781 0.000000 0.000000 0.000000 -1.894512 0.019778 -0.208642 -2.148574 0.649806 7.011849 0.327848 -7.396675 22.948163 0.000000 0.000000 0.000000 -4.961872 -0.090266 2.762597 -2.043587 1.009676 0.370106 -3.287931 0.997613 4.688657 3.107971 -0.498702 -16.348880 0.000000 0.000000 0.000000 -21.018369 -4.411638 -0.217118 -37.154147 -6.166254 -2.471769 10.308765 -9.336968 -0.490548 0.000000 0.000000 0.000000 20.611249 8.680588 3.498929 39.692642 12.047798 -0.379304 -3.567384 5.486974 0.084765 0.000000 0.000000 0.000000
0.214279 0.949575 -1.032735 -3.444993 0.769850 -7.976178 3.203474 0.584603 9.541642 0.908606 -0.144216 1.019734 -2.525501 -1.665625 6.811427 0.000000 0.000000 0.000000 -2.210701 -0.009714 0.143770 -1.880582 0.576145 6.545149 0.257374 -7.201730 21.873510 0.000000 0.000000 0.000000 -4.603137 -0.088907 2.173762 -1.962416 0.965101 0.727718 -3.243654 1.152199 4.482032 3.371873 -0.717432 -15.561617 0.000000 0.000000 0.000000 -21.058618 -5.119999 0.083567 -36.156665 -6.107662 -2.380048 10.048144 -9.212529 -0.469503 0.000000 0.000000 0.000000 19.780507 9.281800 3.889159 38.420910 12.500606 -0.266465 -3.543252 4.672488 0.084545 0.000000 0.000000 0.000000
